<svg xmlns="http://www.w3.org/2000/svg" width="32" height="27.13" viewBox="0 0 32 27.13">
  <path id="audacity" d="M18,5C11.462,5,6.174,9.035,6.174,14.043V15.8C3.745,16.859,2,20.019,2,23.783c0,4.451,2.435,8.071,5.565,8.348V14.043C7.565,9.8,12.226,6.391,18,6.391S28.435,9.8,28.435,14.043V32.13c3.13-.277,5.565-3.9,5.565-8.348,0-3.763-1.745-6.924-4.174-7.981V14.043C29.826,9.035,24.538,5,18,5ZM8.957,15.574V31.991a5.036,5.036,0,0,0,1.391-.625V16.2a5.038,5.038,0,0,0-1.391-.625Zm18.087,0a5.036,5.036,0,0,0-1.391.625V31.367a5.038,5.038,0,0,0,1.391.625Zm-9.459.557-1.462,9.323-2.017-7.236L12.644,24.41l-.905-2.367v2.851l1.183,3.062,1.32-5.565L16.4,30.459,17.72,21.7l1.951,8.416,2.087-7.652,1.321,5.777,1.182-2.714V22.948l-.9,1.946-1.462-6.745L19.807,25.8Z" transform="translate(-2 -5)" fill="#282726"/>
</svg>
