<svg xmlns="http://www.w3.org/2000/svg" width="32" height="25.994" viewBox="0 0 32 25.994">
  <g id="blender" transform="translate(-150.866 -478.366)">
    <g id="Group_9" data-name="Group 9" transform="translate(167.542 489.252)">
      <path id="Path_10" data-name="Path 10" d="M2698.825-3774.1a3.775,3.775,0,0,1,1.371-2.674,4.564,4.564,0,0,1,2.949-1.055,4.566,4.566,0,0,1,2.949,1.055,3.781,3.781,0,0,1,1.371,2.673,3.714,3.714,0,0,1-1.154,2.871,4.521,4.521,0,0,1-3.166,1.25,4.523,4.523,0,0,1-3.167-1.25A3.707,3.707,0,0,1,2698.825-3774.1Z" transform="translate(-2698.819 3777.826)" fill="#282726"/>
    </g>
    <g id="Group_10" data-name="Group 10" transform="translate(150.866 478.366)">
      <path id="Path_11" data-name="Path 11" d="M2380.642-3975.167a7.9,7.9,0,0,0,.34,1.863,9.831,9.831,0,0,0,2.123,3.676,10.97,10.97,0,0,0,3.716,2.669,11.945,11.945,0,0,0,4.879,1.014,11.955,11.955,0,0,0,4.876-1.031,11.05,11.05,0,0,0,3.713-2.679,9.909,9.909,0,0,0,2.123-3.683,9.315,9.315,0,0,0,.4-2.056,9.377,9.377,0,0,0-.066-2.042,9.492,9.492,0,0,0-1.354-3.706,10.328,10.328,0,0,0-2.47-2.723l0,0-10-7.676c-.009-.007-.017-.014-.026-.02a2.223,2.223,0,0,0-2.48,0,1.126,1.126,0,0,0-.164,1.886l0,0,4.169,3.39-12.708.014h-.017a2.317,2.317,0,0,0-2.26,1.561c-.206.887.508,1.623,1.6,1.627l0,0,6.441-.012-11.494,8.822-.044.033a2.258,2.258,0,0,0-.751,3.084,2.32,2.32,0,0,0,3.262.005l6.273-5.134A9.769,9.769,0,0,0,2380.642-3975.167Zm16.119,2.321a7.062,7.062,0,0,1-5.06,2.067,7.029,7.029,0,0,1-5.063-2.051,6.021,6.021,0,0,1-1.382-2.163,5.615,5.615,0,0,1-.317-2.417,5.705,5.705,0,0,1,.692-2.275,6.272,6.272,0,0,1,1.538-1.828,7.168,7.168,0,0,1,4.529-1.581,7.155,7.155,0,0,1,4.531,1.567,6.247,6.247,0,0,1,1.536,1.823,5.71,5.71,0,0,1,.7,2.274,5.623,5.623,0,0,1-.318,2.415A6.05,6.05,0,0,1,2396.761-3972.846Z" transform="translate(-2370.84 3991.939)" fill="#282726"/>
    </g>
  </g>
</svg>
