<svg xmlns="http://www.w3.org/2000/svg" width="32" height="32.141" viewBox="0 0 32 32.141">
  <g id="c4d" transform="translate(-99.963 -71.498)">
    <circle id="Ellipse_5" data-name="Ellipse 5" cx="15.872" cy="15.872" r="15.872" transform="translate(100.161 71.696)" fill="#282726"/>
    <path id="Path_13" data-name="Path 13" d="M123.852,112.708A9,9,0,1,1,112.97,98.566l-10,.373a15.872,15.872,0,0,0,25.23,19Z" transform="translate(-0.517 -19.587)" fill="#d1d3d3"/>
    <path id="Path_14" data-name="Path 14" d="M131.963,89.418a3.856,3.856,0,0,0-5.973-3.225h0l-.013.009-.066.046c-2.531,1.691-4.426,7.6-6.923,9.826l0,0a8.636,8.636,0,1,1-5.812-15.023c.956,0,3.7.739,6,.269a4.8,4.8,0,0,0,1.432-.508l.008,0c.018-.01.033-.021.05-.031a4.836,4.836,0,0,0-1.164-8.9,16.059,16.059,0,0,0-9.981,1l-1.665.857A16.07,16.07,0,1,0,131.96,89.7l-.01-.006C131.956,89.6,131.963,89.51,131.963,89.418Z" transform="translate(0)" fill="#86817c"/>
    <circle id="Ellipse_6" data-name="Ellipse 6" cx="3.156" cy="3.156" r="3.156" transform="translate(111.093 83.71)" fill="#86817c"/>
  </g>
</svg>
