<svg id="csharp" xmlns="http://www.w3.org/2000/svg" width="32" height="32" viewBox="0 0 32 32">
  <g id="Group_3" data-name="Group 3" transform="translate(19.469 16.054)">
    <g id="Group_2" data-name="Group 2">
      <path id="Path_4" data-name="Path 4" d="M308.63,253.989l-.086.372h.23l.086-.372Z" transform="translate(-308.544 -253.989)" fill="#282726"/>
    </g>
  </g>
  <g id="Group_5" data-name="Group 5">
    <g id="Group_4" data-name="Group 4">
      <path id="Path_5" data-name="Path 5" d="M16,0A16,16,0,1,0,32,16,16.018,16.018,0,0,0,16,0Zm-.5,18.241a2.142,2.142,0,0,1-.51.737,3.218,3.218,0,0,1-.769.541,4.081,4.081,0,0,1-.921.331,4.255,4.255,0,0,1-.956.114,3.431,3.431,0,0,1-1.5-.327,3.81,3.81,0,0,1-1.17-.865,3.946,3.946,0,0,1-.761-1.221,3.774,3.774,0,0,1-.269-1.388,3.67,3.67,0,0,1,1-2.5,3.794,3.794,0,0,1,1.181-.839,3.753,3.753,0,0,1,1.585-.322,3.728,3.728,0,0,1,1.849.441,2.9,2.9,0,0,1,1.172,1.173l.032.06L13.812,15.35l-.036-.094a1.206,1.206,0,0,0-.252-.41,1.3,1.3,0,0,0-.349-.259,1.525,1.525,0,0,0-.4-.135,1.684,1.684,0,0,0-1.105.119,1.443,1.443,0,0,0-.482.414,1.813,1.813,0,0,0-.282.584,2.4,2.4,0,0,0-.093.654,2.25,2.25,0,0,0,.108.7,1.806,1.806,0,0,0,.311.584,1.514,1.514,0,0,0,.5.4,1.593,1.593,0,0,0,1.059.1,1.475,1.475,0,0,0,.39-.145,1.318,1.318,0,0,0,.335-.259,1.144,1.144,0,0,0,.232-.385l.033-.088,1.751,1.046Zm7.707-2.366H21.582l-.167.727h1.279v1.577h-1.66L20.617,19.9H18.924l.426-1.725H18.9L18.487,19.9H16.793l.426-1.725H16.1V16.6h1.5l.167-.727H16.622V14.4H18.13l.457-1.857h1.693L19.814,14.4h.447l.457-1.857h1.693L21.945,14.4h1.267Z" fill="#282726"/>
    </g>
  </g>
</svg>
