<svg xmlns="http://www.w3.org/2000/svg" width="32" height="36.387" viewBox="0 0 32 36.387">
  <path id="css" d="M59.191,0H29.562a1.184,1.184,0,0,0-1.18,1.31l2.706,30.327a2.025,2.025,0,0,0,1.364,1.643l10.669,2.963a5.551,5.551,0,0,0,2.5,0L56.3,33.287a2.014,2.014,0,0,0,1.364-1.637L60.372,1.31A1.183,1.183,0,0,0,59.191,0ZM54.053,10.947a.01.01,0,0,1-.02,0l-8.359,3.425a.269.269,0,0,0,.1.519h6.5a1.219,1.219,0,0,1,1.212,1.348l-1.016,9.53a1.219,1.219,0,0,1-.808,1.021l-6.9,2.428a1.218,1.218,0,0,1-.8,0l-6.869-2.379a1.219,1.219,0,0,1-.813-1.023l-.461-4.316a.8.8,0,0,1,.8-.888H38.53a.8.8,0,0,1,.8.718l.283,2.653,4.756,1.653,4.778-1.668.584-5.5H36.22a.8.8,0,0,1-.8-.715l-.257-2.332a.8.8,0,0,1,.492-.831L44.3,11.029a.222.222,0,0,0-.084-.427h-9.1a.535.535,0,0,1-.532-.479L34.32,7.616a.535.535,0,0,1,.532-.591H53.9a.535.535,0,0,1,.532.6Z" transform="translate(-28.377)" fill="#282726"/>
</svg>
