<svg xmlns="http://www.w3.org/2000/svg" width="24" height="21.188" viewBox="0 0 24 21.188">
  <g id="heart" transform="translate(0 -30)">
    <g id="Group_11" data-name="Group 11" transform="translate(0 30)">
      <path id="Path_45" data-name="Path 45" d="M17.625,30a5.682,5.682,0,0,0-3.549,1.227A8.084,8.084,0,0,0,12,33.724a8.083,8.083,0,0,0-2.076-2.5A5.682,5.682,0,0,0,6.375,30C2.741,30,0,32.973,0,36.915,0,41.174,3.419,44.087,8.6,48.5c.879.749,1.875,1.6,2.911,2.5a.75.75,0,0,0,.987,0c1.036-.906,2.032-1.755,2.911-2.5C20.581,44.087,24,41.174,24,36.915,24,32.973,21.259,30,17.625,30Z" transform="translate(0 -30)" fill="#fe6339"/>
    </g>
  </g>
</svg>
