<svg xmlns="http://www.w3.org/2000/svg" width="24" height="21.59" viewBox="0 0 24 21.59">
  <path id="itchio" d="M3.129.133C2.082.755.02,3.124,0,3.746V4.774a2.553,2.553,0,0,0,2.325,2.45A2.448,2.448,0,0,0,4.761,4.816a2.415,2.415,0,0,0,2.4,2.408A2.386,2.386,0,0,0,9.522,4.816a2.474,2.474,0,0,0,2.466,2.408h.024a2.474,2.474,0,0,0,2.466-2.408,2.386,2.386,0,0,0,2.363,2.408,2.415,2.415,0,0,0,2.4-2.408,2.448,2.448,0,0,0,2.436,2.408A2.553,2.553,0,0,0,24,4.774V3.746C23.98,3.124,21.918.755,20.871.133,17.617.019,15.362,0,12,0S4.055.053,3.129.133ZM9.506,6.61a2.741,2.741,0,0,1-.468.6,2.788,2.788,0,0,1-3.9,0,2.6,2.6,0,0,1-.446-.59h0a2.757,2.757,0,0,1-.485.59,2.788,2.788,0,0,1-1.951.794.841.841,0,0,1-.263-.052c-.107,1.112-.152,2.175-.168,2.95v0c0,.394,0,.717-.006,1.167.021,2.334-.231,7.564,1.029,8.849A48.276,48.276,0,0,0,12,21.59h0a48.275,48.275,0,0,0,9.151-.664c1.26-1.285,1.008-6.516,1.029-8.849,0-.45,0-.773-.006-1.167v0c-.016-.775-.061-1.838-.168-2.95a.84.84,0,0,1-.263.052,2.788,2.788,0,0,1-1.951-.794,2.758,2.758,0,0,1-.485-.59h0a2.606,2.606,0,0,1-.446.59,2.788,2.788,0,0,1-3.9,0,2.741,2.741,0,0,1-.468-.6,2.738,2.738,0,0,1-.463.6,2.787,2.787,0,0,1-1.951.795L12,8h0l-.08,0a2.787,2.787,0,0,1-1.951-.795,2.738,2.738,0,0,1-.463-.6ZM7.5,9.2h0a2.677,2.677,0,0,1,2.372.953A20.219,20.219,0,0,1,12,10.048h0a20.248,20.248,0,0,1,2.125.107A2.677,2.677,0,0,1,16.5,9.2h0c.375,0,1.875,0,2.92,2.935l1.122,4.026c.832,3-.266,3.069-1.636,3.071a3.077,3.077,0,0,1-3.156-3.026A23.85,23.85,0,0,1,12,16.485h0a23.837,23.837,0,0,1-3.748-.277A3.077,3.077,0,0,1,5.1,19.234c-1.37,0-2.468-.076-1.636-3.071l1.123-4.026C5.627,9.2,7.127,9.2,7.5,9.2ZM12,11.508h0A21.76,21.76,0,0,0,9.477,14.17l1.4-.056v1.22A4.176,4.176,0,0,0,12,15.342h0a4.176,4.176,0,0,0,1.123-.008v-1.22l1.4.056A21.771,21.771,0,0,0,12,11.508h0Z" transform="translate(0 0)"/>
</svg>
