<svg xmlns="http://www.w3.org/2000/svg" width="32.718" height="43.786" viewBox="0 0 32.718 43.786">
  <path id="java" d="M0,0V0ZM24.88,20.5c.373,1.776-1.838,3.315-1.838,3.315a3.882,3.882,0,0,0,.429-2.151c-.249-.8-1.782-1.6-1.782-4.057S27.342,13,27.342,13s-2.9,2.187-3.564,3.378C22.791,18.16,24.513,18.715,24.88,20.5ZM18,16.134c1.414-3.071,5.042-4.119,6.02-5.9a5.5,5.5,0,0,0,.617-3.5,4.49,4.49,0,0,1,.18,4.73c-1.477,2.393-5.235,4.045-5.279,5.709-.062,2.337,1.6,5.528,1.6,5.528S16.591,19.206,18,16.134Zm-4.786,8.046C13.581,23.071,18,23.071,18,23.071s-2.824.555-2.762,1.233,9.03.736,12.408-.187c0,0-1.9,1.647-7.122,1.833S12.845,25.283,13.214,24.179Zm4.3,6.021c.124.286,3.234.654,4.748.448s2.5-.412,2.5-.412l1.551.948a13.044,13.044,0,0,1-5.852.935c-3.44-.2-4.381-.86-4.3-1.6s1.477-.772,1.477-.772A.359.359,0,0,0,17.514,30.2ZM19.1,28.848c-3.6-.249-5.279-1.533-2.207-2.275,0,0-.673.25-.429.68s3.339.654,5.9.368a24.132,24.132,0,0,0,3.2-.555l1.227.86A31.611,31.611,0,0,1,19.1,28.848ZM10.8,33.068c.124-1.066,4.057-1.147,4.381-1.19,0,0-2.824.491-2.661,1.109s5.366,1.308,10.152,1.059,7.784-1.059,8.115-1.39a.436.436,0,0,0,.075-.611.652.652,0,0,1,.169,1.023c-.53.573-3.772,1.919-11.138,1.926S10.671,34.133,10.8,33.068Zm17.979,2.9a37.753,37.753,0,0,1-13.679-.249s9.828.412,13.064-.238,4.3-1.808,4.3-1.808S32.259,35.36,28.774,35.971Zm-.7-7.428s3.44-2.275,3.191-3.808S28.506,23.2,28.506,23.2s3.566-1.907,4.177,1.471C33.187,27.452,28.077,28.543,28.077,28.543Z" fill="#282726" fill-rule="evenodd"/>
</svg>
