<svg xmlns="http://www.w3.org/2000/svg" width="32" height="32" viewBox="0 0 32 32">
  <g id="love" transform="translate(-260 -624)">
    <path id="Subtraction_1" data-name="Subtraction 1" d="M4.322,26.938h0A16,16,0,0,1,26.938,4.322L4.323,26.937Z" transform="translate(260 624)" fill="#fe6339"/>
    <g id="Ellipse_4" data-name="Ellipse 4" transform="translate(260 624)" fill="none" stroke="#282726" stroke-width="2">
      <circle cx="16" cy="16" r="16" stroke="none"/>
      <circle cx="16" cy="16" r="15" fill="none"/>
    </g>
    <g id="heart" transform="translate(267.716 602.687)">
      <g id="Group_1" data-name="Group 1" transform="translate(0 30)">
        <path id="Path_1" data-name="Path 1" d="M12.167,30a3.923,3.923,0,0,0-2.45.847,5.581,5.581,0,0,0-1.433,1.724,5.58,5.58,0,0,0-1.433-1.724A3.923,3.923,0,0,0,4.4,30,4.5,4.5,0,0,0,0,34.773c0,2.94,2.36,4.951,5.934,8,.607.517,1.295,1.1,2.009,1.728a.518.518,0,0,0,.682,0c.715-.625,1.4-1.211,2.01-1.729,3.573-3.045,5.933-5.056,5.933-8A4.5,4.5,0,0,0,12.167,30Z" transform="translate(0 -30)" fill="#282726"/>
      </g>
    </g>
  </g>
</svg>
