<svg xmlns="http://www.w3.org/2000/svg" width="32" height="32" viewBox="0 0 32 32">
  <g id="photon" transform="translate(-222.057 -94.866)">
    <path id="Path_20" data-name="Path 20" d="M-.038-.124H1.6L1.122,6.46H.182Z" transform="translate(237.277 94.99)" fill="#282726"/>
    <path id="Path_22" data-name="Path 22" d="M0,0H1.635L1.16,6.584H.22Z" transform="translate(238.874 126.866) rotate(180)" fill="#282726"/>
    <path id="Path_23" data-name="Path 23" d="M0,0H1.635L1.16,6.584H.22Z" transform="translate(254.057 110.048) rotate(90)" fill="#282726"/>
    <path id="Path_24" data-name="Path 24" d="M0,0H1.635L1.16,6.584H.22Z" transform="translate(222.057 111.683) rotate(-90)" fill="#282726"/>
    <path id="Path_25" data-name="Path 25" d="M0,0H1.635L1.16,6.584H.22Z" transform="translate(248.792 98.974) rotate(45)" fill="#282726"/>
    <path id="Path_26" data-name="Path 26" d="M0,0H1.635L1.16,6.584H.22Z" transform="translate(227.321 122.758) rotate(-135)" fill="#282726"/>
    <path id="Path_27" data-name="Path 27" d="M0,0H1.635L1.16,6.584H.22Z" transform="translate(249.949 121.601) rotate(135)" fill="#282726"/>
    <path id="Path_28" data-name="Path 28" d="M0,0H1.635L1.16,6.584H.22Z" transform="translate(226.165 100.13) rotate(-45)" fill="#282726"/>
    <path id="Path_29" data-name="Path 29" d="M0,0H1.635L1.16,6.584H.22Z" transform="translate(245.349 96.601) rotate(30)" fill="#282726"/>
    <path id="Path_30" data-name="Path 30" d="M0,0H1.635L1.16,6.584H.22Z" transform="translate(230.765 125.131) rotate(-150)" fill="#282726"/>
    <path id="Path_31" data-name="Path 31" d="M0,0H1.635L1.16,6.584H.22Z" transform="translate(252.322 118.158) rotate(120)" fill="#282726"/>
    <path id="Path_32" data-name="Path 32" d="M0,0H1.635L1.16,6.584H.22Z" transform="translate(223.792 103.574) rotate(-60)" fill="#282726"/>
    <path id="Path_33" data-name="Path 33" d="M0,0H1.635L1.16,6.584H.22Z" transform="matrix(0.259, 0.966, -0.966, 0.259, 253.3, 105.935)" fill="#282726"/>
    <path id="Path_34" data-name="Path 34" d="M0,0H1.635L1.16,6.584H.22Z" transform="matrix(-0.259, -0.966, 0.966, -0.259, 222.814, 115.797)" fill="#282726"/>
    <path id="Path_35" data-name="Path 35" d="M0,0H1.635L1.16,6.584H.22Z" transform="matrix(-0.966, 0.259, -0.259, -0.966, 242.988, 126.109)" fill="#282726"/>
    <path id="Path_36" data-name="Path 36" d="M0,0H1.635L1.16,6.584H.22Z" transform="matrix(0.966, -0.259, 0.259, 0.966, 233.126, 95.623)" fill="#282726"/>
    <path id="Path_37" data-name="Path 37" d="M0,0H1.635L1.16,6.584H.22Z" transform="translate(229.349 97.418) rotate(-30)" fill="#282726"/>
    <path id="Path_38" data-name="Path 38" d="M0,0H1.635L1.16,6.584H.22Z" transform="translate(246.765 124.314) rotate(150)" fill="#282726"/>
    <path id="Path_39" data-name="Path 39" d="M0,0H1.635L1.16,6.584H.22Z" transform="translate(251.504 102.158) rotate(60)" fill="#282726"/>
    <path id="Path_40" data-name="Path 40" d="M0,0H1.635L1.16,6.584H.22Z" transform="translate(224.609 119.574) rotate(-120)" fill="#282726"/>
    <path id="Path_41" data-name="Path 41" d="M0,0H1.635L1.16,6.584H.22Z" transform="matrix(0.966, 0.259, -0.259, 0.966, 241.408, 95.199)" fill="#282726"/>
    <path id="Path_42" data-name="Path 42" d="M0,0H1.635L1.16,6.584H.22Z" transform="matrix(-0.966, -0.259, 0.259, -0.966, 234.705, 126.532)" fill="#282726"/>
    <path id="Path_43" data-name="Path 43" d="M0,0H1.635L1.16,6.584H.22Z" transform="matrix(-0.259, 0.966, -0.966, -0.259, 253.723, 114.217)" fill="#282726"/>
    <path id="Path_44" data-name="Path 44" d="M0,0H1.635L1.16,6.584H.22Z" transform="matrix(0.259, -0.966, 0.966, 0.259, 222.39, 107.515)" fill="#282726"/>
  </g>
</svg>
