<svg xmlns="http://www.w3.org/2000/svg" width="32.089" height="37.21" viewBox="0 0 32.089 37.21">
  <g id="playfab" transform="translate(-97.912 -570)">
    <g id="Subtraction_2" data-name="Subtraction 2" transform="translate(98 570)" fill="none">
      <path d="M16,37.21h0L6.724,31.817l.1-7.785L0,20.249V9.3L16,0,32,9.3v18.6l-16,9.3Z" stroke="none"/>
      <path d="M 16.00020599365234 32.58269119262695 L 28.00040054321289 25.60587310791016 L 28.00040054321289 11.60373020172119 L 16.00020599365234 4.626911640167236 L 4.000000476837158 11.60374450683594 L 4.000000476837158 17.89240837097168 L 8.765920639038086 20.53291702270508 L 10.85875988006592 21.69243621826172 L 10.82705020904541 24.08481597900391 L 10.7548246383667 29.5330638885498 L 16.00020599365234 32.58269119262695 M 16.00020027160645 37.2096061706543 L 15.99970054626465 37.20930862426758 L 6.724200248718262 31.81659698486328 L 6.827400207519531 24.03179740905762 L 2.716064386731887e-07 20.24914741516113 L 2.716064386731887e-07 9.302407264709473 L 16.00020027160645 6.900024345668498e-06 L 32.00040054321289 9.302396774291992 L 32.00040054321289 27.90720748901367 L 16.00069999694824 37.20930862426758 L 16.00020027160645 37.2096061706543 Z" stroke="none" fill="#282726"/>
    </g>
    <g id="Polygon_2" data-name="Polygon 2" transform="translate(122.335 579.955) rotate(90)" fill="none">
      <path d="M13.274,0,17.7,8.3l-4.425,8.3H4.425L0,8.3,4.425,0Z" stroke="none"/>
      <path d="M 6.824526786804199 3.999995231628418 L 4.533330917358398 8.295986175537109 L 6.824518203735352 12.59196472167969 L 10.87358283996582 12.59196472167969 L 13.16477203369141 8.295984268188477 L 10.8735818862915 3.999995231628418 L 6.824526786804199 3.999995231628418 M 4.424530982971191 -5.7220458984375e-06 L 13.27358055114746 -5.7220458984375e-06 L 17.69810104370117 8.295985221862793 L 13.27358055114746 16.59196472167969 L 4.424520492553711 16.59196472167969 L 0 8.295985221862793 L 4.424530982971191 -5.7220458984375e-06 Z" stroke="none" fill="#282726"/>
    </g>
    <path id="Path_15" data-name="Path 15" d="M121.888,630.254v9.425" transform="translate(-14.999 -37.834)" fill="none" stroke="#282726" stroke-width="4"/>
    <path id="Path_16" data-name="Path 16" d="M100.319,620l7.746,4.189" transform="translate(-1.456 -31.395)" fill="none" stroke="#282726" stroke-width="4"/>
  </g>
</svg>
