<svg xmlns="http://www.w3.org/2000/svg" width="32" height="30.234" viewBox="0 0 32 30.234">
  <g id="python" transform="translate(0 -0.47)">
    <g id="Group_6" data-name="Group 6" transform="translate(0 0.47)">
      <path id="Path_6" data-name="Path 6" d="M21.2,14.635c2.43-1.1,2.792-9.484,1.358-11.953C20.683-.542,11.783.106,8.972,2.41A21.661,21.661,0,0,0,8.7,7.282H17.52v.773H8.7c0,.011-3.927.024-3.927.024-6.771,0-6.63,14.705,2.3,14.705a28.727,28.727,0,0,1,.9-4.889C9.753,12.858,17.2,16.447,21.2,14.635ZM11.961,6.089A1.842,1.842,0,1,1,13.8,4.246,1.84,1.84,0,0,1,11.961,6.089Z" transform="translate(0 -0.47)" fill="#282726"/>
      <path id="Path_7" data-name="Path 7" d="M20.7,4.691a25.509,25.509,0,0,1-.809,4.889c-1.773,5.036-9.22,1.448-13.218,3.261-2.428,1.1-2.794,9.484-1.358,11.953,1.871,3.225,10.771,2.578,13.583.272a21.636,21.636,0,0,0,.274-4.871H10.347v-.773h8.82c0-.011,4.347-.024,4.347-.024C29.754,19.4,30.313,4.691,20.7,4.691ZM15.591,21.068a1.841,1.841,0,1,1-1.841,1.842A1.842,1.842,0,0,1,15.591,21.068Z" transform="translate(3.918 3.227)" fill="#282726"/>
    </g>
  </g>
</svg>
