<svg id="unreal" xmlns="http://www.w3.org/2000/svg" width="32.031" height="32.031" viewBox="0 0 32.031 32.031">
  <path id="Path_2" data-name="Path 2" d="M16.016.761A15.254,15.254,0,1,1,.761,16.016,15.272,15.272,0,0,1,16.016.761m0-.761A16.016,16.016,0,1,0,32.031,16.016,16.016,16.016,0,0,0,16.016,0Z" fill="#282726"/>
  <path id="Path_3" data-name="Path 3" d="M39.4,42.2a16.742,16.742,0,0,0-6.851,4.461C29.311,50.1,28.9,52.552,28.9,54.379c.716-1.218,5.13-7.932,6.166-4.735v7.642s-.061,1.035-1.644.624c.472.883,2.908,3.06,7.307,3.5,1-1,2.314-2.451,2.314-2.451l2.192,1.857s3.943-2.558,5.5-6.272c-1.446.944-3.2,3.136-4.11,1.6v-9.3a35.653,35.653,0,0,1,2.71-3.684,11.312,11.312,0,0,0-5.922,3.471c-.487-.533-1.842-.548-1.842-.548s1.066.883,1.081,1.69,0,7.536,0,8.312a3.318,3.318,0,0,1-2.01,1.142,1.9,1.9,0,0,1-1.827-.822V46.63s-.579.487-1.035-.3S37.3,44,39.4,42.2Z" transform="translate(-24.5 -35.776)" fill="#282726"/>
</svg>
